<svg viewBox="0 0 38 60" fill="none" xmlns="http://www.w3.org/2000/svg">
<path fill-rule="evenodd" clip-rule="evenodd" d="M18.9884 8.04893e-08C19.3302 -0.000136831 19.6485 0.174399 19.8322 0.462756L32.547 20.424C35.1908 23.9675 36.9361 29.4114 37.6423 34.1427C38.3633 38.9731 37.9854 41.9558 36.586 46.4659C35.2506 50.7699 33.0101 52.7462 30.391 55.0565C30.1527 55.2667 29.9112 55.4797 29.667 55.6975C26.546 58.4806 22.8346 60 19 60C15.1655 60 11.454 58.4806 8.33297 55.6975C8.08878 55.4797 7.84733 55.2667 7.60902 55.0565C4.98988 52.7462 2.74942 50.7699 1.41397 46.4659C0.0145755 41.9558 -0.363297 38.9731 0.3577 34.1427C1.06389 29.4115 2.80915 23.9678 5.45275 20.4243L18.1449 0.463432C18.3283 0.174928 18.6465 0.000137052 18.9884 8.04893e-08ZM18.9895 2.86252L7.12012 21.5294C7.10633 21.5511 7.09171 21.5723 7.07629 21.5928C4.69599 24.7669 3.01849 29.8641 2.33579 34.438C1.6658 38.9266 1.99947 41.604 3.32414 45.8732C4.48905 49.6276 6.34108 51.265 8.95778 53.5785C9.18731 53.7814 9.42272 53.9895 9.66407 54.2048C12.4637 56.7013 15.7134 58 19 58C22.2866 58 25.5363 56.7013 28.3359 54.2048C28.5773 53.9895 28.8127 53.7814 29.0422 53.5785C31.6589 51.265 33.511 49.6276 34.6759 45.8732C36.0005 41.604 36.3342 38.9266 35.6642 34.438C34.9815 29.8641 33.304 24.7669 30.9237 21.5928C30.9085 21.5725 30.894 21.5515 30.8803 21.5301L18.9895 2.86252Z" fill="white"/>
</svg>
