<svg viewBox="0 0 733 525" fill="none" xmlns="http://www.w3.org/2000/svg">
<path d="M556.847 387.518C516.082 449.195 446.132 489.89 366.667 489.89C287.202 489.89 217.252 449.195 176.487 387.518C163.752 388.759 151.22 390.122 138.908 391.601C183.995 470.709 269.098 524.053 366.667 524.053C464.236 524.053 549.339 470.709 594.426 391.601C582.112 390.122 569.582 388.759 556.847 387.518Z" fill="#20B109"/>
<path d="M366.666 379.604C505.401 379.604 632.729 393.285 732.433 416.096C648.274 377.382 515.757 352.41 366.666 352.41C217.574 352.41 85.0571 377.382 0.898438 416.096C100.602 393.285 227.932 379.604 366.666 379.604Z" fill="#20B109"/>
<path d="M271.538 307.128C221.3 311.578 186.612 321.472 170.254 327.037C229.828 317.12 296.405 311.572 366.666 311.572C436.929 311.572 503.508 317.12 563.082 327.037C546.92 321.538 512.857 311.81 463.572 307.286L569.812 288.198L438.018 291.685L506.554 264.28L435.605 280.822L543.776 207.349L424.716 264.177L476.45 210.985L418.284 255.016L487.106 144.078L401.636 244.206L427.274 174.542L391.832 238.812L409.601 109.329L372.417 234.985L367.526 161.252L361.228 235.082L324.662 109.108L341.694 238.212L307.537 173.413L332.09 244.221L246.977 143.453L314.581 253.705L257.682 208.921L309.488 264.236L189.977 206.425L295.909 279.188L226.58 261.638L297.042 291.368L163.52 287.138L271.538 307.128" fill="#EFCC13"/>
<path d="M149.404 330.739C142.557 309.069 138.849 286.007 138.849 262.073C138.849 136.253 240.846 34.2559 366.666 34.2559C492.486 34.2559 594.483 136.253 594.483 262.073C594.483 286.007 590.776 309.069 583.929 330.739C595.43 332.913 606.639 335.253 617.53 337.752C624.753 313.791 628.645 288.388 628.645 262.073C628.645 117.385 511.354 0.0933092 366.666 0.0933092C221.978 0.0933092 104.688 117.385 104.688 262.073C104.688 288.388 108.578 313.792 115.801 337.752C126.692 335.253 137.901 332.912 149.404 330.739" fill="#EFCC13"/>
</svg>
