<svg viewBox="0 0 732 525" fill="none" xmlns="http://www.w3.org/2000/svg">
<path d="M555.948 387.518C515.183 449.195 445.234 489.89 365.768 489.89C286.303 489.89 216.354 449.195 175.588 387.518C162.854 388.759 150.322 390.122 138.01 391.601C183.096 470.709 268.199 524.053 365.768 524.053C463.338 524.053 548.44 470.709 593.527 391.601C581.214 390.122 568.683 388.759 555.948 387.518Z" fill="#116652"/>
<path d="M365.768 379.604C504.503 379.604 631.831 393.285 731.535 416.096C647.376 377.382 514.859 352.41 365.768 352.41C216.676 352.41 84.1587 377.382 0 416.096C99.704 393.285 227.033 379.604 365.768 379.604Z" fill="#116652"/>
<path d="M270.64 307.128C220.401 311.578 185.713 321.472 169.356 327.037C228.929 317.12 295.506 311.572 365.768 311.572C436.03 311.572 502.609 317.12 562.184 327.037C546.021 321.538 511.958 311.81 462.673 307.286L568.913 288.198L437.12 291.685L505.656 264.28L434.706 280.822L542.877 207.349L423.817 264.177L475.552 210.985L417.385 255.016L486.208 144.078L400.737 244.206L426.376 174.542L390.933 238.812L408.702 109.329L371.518 234.985L366.628 161.252L360.329 235.082L323.764 109.108L340.796 238.212L306.638 173.413L331.192 244.221L246.078 143.453L313.682 253.705L256.784 208.921L308.589 264.236L189.078 206.425L295.01 279.188L225.681 261.638L296.144 291.368L162.621 287.138L270.64 307.128" fill="#FE7A00"/>
<path d="M148.505 330.739C141.658 309.069 137.95 286.007 137.95 262.073C137.95 136.253 239.948 34.2559 365.768 34.2559C491.588 34.2559 593.585 136.253 593.585 262.073C593.585 286.007 589.877 309.069 583.03 330.739C594.532 332.913 605.741 335.253 616.632 337.752C623.854 313.791 627.746 288.388 627.746 262.073C627.746 117.385 510.456 0.0933092 365.768 0.0933092C221.08 0.0933092 103.789 117.385 103.789 262.073C103.789 288.388 107.68 313.792 114.902 337.752C125.793 335.253 137.002 332.912 148.505 330.739" fill="#FE7A00"/>
</svg>
